<?xml version="1.0" encoding="UTF-8"?><svg id="Layer_1" data-name="Layer 1" xmlns="http://www.w3.org/2000/svg" xmlns:xlink="http://www.w3.org/1999/xlink" viewBox="0 0 555.8 123.5"><defs><style>.cls-1 {
        fill: #fff;
        opacity: .1;
      }

      .cls-2 {
        clip-path: url(#clippath-3);
      }

      .cls-3 {
        clip-path: url(#clippath-2);
      }

      .cls-4 {
        fill: #315bf2;
      }

      .cls-5 {
        fill: #0a2547;
      }</style><clipPath id="clippath-2"><path class="cls-4" d="M109.19 73.96c16.55 2.35 23.67-7.52 22.62-22.99-1.05-15.47-19.1-40.69-47.86-44.78C46.03.81 21.32 28.12 16.91 51.25c-1.16 5.58-5.77 26.92 12.66 46.4 0 0-8.82-26.45 1.43-42.31 10.26-15.86 30.15-16.12 42.22-7.52 12.07 8.6 19.32 23.77 35.97 26.14Z"/></clipPath><clipPath id="clippath-3"><path class="cls-4" d="M128.76 78.98s-5.94 10.39-21.59 9.03C91.53 86.65 82.59 60.49 60.8 58.6c-21.79-1.89-33.02 17.24-26.23 34.46 5.87 14.87 35.11 32.7 62.43 21.32 0 0 23.6-8.58 31.76-35.41Z"/></clipPath></defs><g><path class="cls-5" d="M183.37 49.28a14.06 14.06 0 0 1 7.27-1.85c2.34 0 4.49.42 6.46 1.25 1.97.84 3.66 2.09 5.06 3.76l7.22-7.32a22.82 22.82 0 0 0-8.27-6.16 25.49 25.49 0 0 0-10.47-2.16c-4.74 0-9.04 1.1-12.88 3.31a24.33 24.33 0 0 0-9.07 8.97c-2.21 3.78-3.31 8.03-3.31 12.78s1.1 8.92 3.31 12.73a24.16 24.16 0 0 0 9.07 9.02 25.34 25.34 0 0 0 12.88 3.31c3.74 0 7.23-.72 10.47-2.15 3.24-1.44 6-3.49 8.27-6.16l-7.22-7.32a13.35 13.35 0 0 1-5.06 3.76 16.32 16.32 0 0 1-6.46 1.25c-2.74 0-5.16-.62-7.27-1.85a12.98 12.98 0 0 1-4.91-5.11c-1.17-2.17-1.75-4.66-1.75-7.47s.58-5.38 1.75-7.52a13.05 13.05 0 0 1 4.91-5.06Z"/><path class="cls-5" d="M251.17 43.2a18.1 18.1 0 0 0-4.96-4.04 19.87 19.87 0 0 0-9.77-2.36c-4.34 0-8.27 1.12-11.78 3.36a24.1 24.1 0 0 0-8.32 9.02c-2.04 3.78-3.06 8.03-3.06 12.78s1.02 8.9 3.06 12.68a23.58 23.58 0 0 0 8.32 8.97 21.63 21.63 0 0 0 11.78 3.31c3.67 0 6.95-.79 9.82-2.36a17.82 17.82 0 0 0 4.91-3.96v5.31h11.02V37.8h-11.02v5.39Zm-3.06 29.18c-2.51 2.74-5.8 4.11-9.87 4.11-2.67 0-5.03-.62-7.07-1.85a13.09 13.09 0 0 1-4.81-5.16c-1.17-2.21-1.75-4.74-1.75-7.62s.58-5.41 1.75-7.62a13.02 13.02 0 0 1 4.81-5.16c2.04-1.24 4.39-1.85 7.07-1.85s5.13.62 7.17 1.85a12.76 12.76 0 0 1 4.76 5.16c1.14 2.2 1.7 4.74 1.7 7.62 0 4.28-1.25 7.78-3.76 10.52Z"/><path class="cls-5" d="M304.48 38.11a15.75 15.75 0 0 0-6.52-1.3c-5.48 0-9.57 1.89-12.28 5.66-.09.12-.16.26-.25.39v-5.05h-11.02v48.11h11.02V59.16c0-4.14 1-7.18 3.01-9.12a10.5 10.5 0 0 1 7.62-2.91c1.4 0 2.64.2 3.71.6a7.57 7.57 0 0 1 2.91 2.01l7.22-7.42a15.75 15.75 0 0 0-5.41-4.21Z"/><rect class="cls-5" x="315.3" y="36.8" width="11.02" height="49.11"/><path class="cls-5" d="M373.63 39.56c-2.8-1.84-6.01-2.76-9.62-2.76s-6.73.82-9.57 2.46a17.64 17.64 0 0 0-4.76 4.02V37.8h-11.02v48.11h11.02V58.15c0-2.14.47-4.04 1.4-5.71a10.07 10.07 0 0 1 3.91-3.91c1.67-.93 3.57-1.4 5.71-1.4 3.21 0 5.83 1.04 7.87 3.11a10.81 10.81 0 0 1 3.06 7.92v27.76h11.02V55.75c0-3.14-.8-6.16-2.4-9.07s-3.81-5.28-6.62-7.12Z"/><rect class="cls-5" x="518.8" y="36.8" width="11.02" height="50.15"/><path class="cls-5" d="M495.43 38.85v5.39a18.1 18.1 0 0 0-4.96-4.04 19.87 19.87 0 0 0-9.77-2.36c-4.34 0-8.27 1.12-11.78 3.36a24.1 24.1 0 0 0-9.32 11.13c2.3 2.59 3.47 5.79 3.47 9.52s-1.32 7.23-3.91 9.95l-.18.17a24.9 24.9 0 0 0 1.61 3.71 23.58 23.58 0 0 0 8.32 8.97 21.63 21.63 0 0 0 11.78 3.31c3.67 0 6.95-.79 9.82-2.36a17.82 17.82 0 0 0 4.91-3.96v5.31h11.02V38.84h-11.02Zm-3.05 34.58c-2.5 2.74-5.8 4.11-9.87 4.11-2.67 0-5.03-.62-7.07-1.85a13.09 13.09 0 0 1-4.81-5.16c-1.17-2.21-1.75-4.74-1.75-7.62s.58-5.41 1.75-7.62a13.02 13.02 0 0 1 4.81-5.16c2.04-1.24 4.39-1.85 7.07-1.85s5.13.62 7.17 1.85a12.76 12.76 0 0 1 4.76 5.16c1.13 2.2 1.7 4.74 1.7 7.62 0 4.28-1.25 7.78-3.76 10.52Z"/><path class="cls-5" d="M435.09 61.86c0-3.99 1.33-7.37 3.95-10.05l.24-.22V37.81h-11.02v5.11a17.25 17.25 0 0 0-4.81-3.81 20.88 20.88 0 0 0-10.02-2.31 21.7 21.7 0 0 0-11.58 3.16 22.46 22.46 0 0 0-8.12 8.57c-1.97 3.61-2.96 7.68-2.96 12.23s.99 8.65 2.96 12.33a22.39 22.39 0 0 0 8.12 8.67 21.7 21.7 0 0 0 11.58 3.16c3.74 0 7.05-.77 9.92-2.31a17.34 17.34 0 0 0 4.91-3.92v5.22c0 3.87-1.27 6.93-3.81 9.17s-5.98 3.36-10.32 3.36c-3.47 0-6.45-.6-8.92-1.8a19.36 19.36 0 0 1-6.61-5.41l-7.22 7.22a23.53 23.53 0 0 0 9.22 7.77c3.81 1.84 8.25 2.76 13.33 2.76s9.42-.97 13.23-2.91a22.02 22.02 0 0 0 8.92-8.07c2.14-3.44 3.21-7.47 3.21-12.08V72.08l-.27-.26a13.93 13.93 0 0 1-3.91-9.95Zm-7.79 6.16a11.8 11.8 0 0 1-4.66 4.76c-2 1.14-4.34 1.7-7.02 1.7s-5.03-.57-7.07-1.7a11.98 11.98 0 0 1-4.76-4.81c-1.14-2.07-1.7-4.44-1.7-7.12s.57-5.13 1.7-7.17a12.1 12.1 0 0 1 4.76-4.76c2.04-1.14 4.39-1.7 7.07-1.7s5.01.57 7.02 1.7c2 1.14 3.56 2.72 4.66 4.76 1.1 2.04 1.65 4.43 1.65 7.17s-.55 5.13-1.65 7.17Z"/><path class="cls-5" d="M449.09 69.38a7.05 7.05 0 0 1-5.34-2.19c-1.39-1.46-2.08-3.24-2.08-5.34s.69-3.97 2.08-5.39c1.39-1.42 3.17-2.13 5.34-2.13s3.95.71 5.34 2.13c1.39 1.42 2.08 3.22 2.08 5.39s-.7 3.88-2.08 5.34a7.05 7.05 0 0 1-5.34 2.19Z"/></g><g><g><path class="cls-4" d="M109.19 73.96c16.55 2.35 23.67-7.52 22.62-22.99-1.05-15.47-19.1-40.69-47.86-44.78C46.03.81 21.32 28.12 16.91 51.25c-1.16 5.58-5.77 26.92 12.66 46.4 0 0-8.82-26.45 1.43-42.31 10.26-15.86 30.15-16.12 42.22-7.52 12.07 8.6 19.32 23.77 35.97 26.14Z"/><g class="cls-3"><path class="cls-1" d="M15.86 68.99s4.68-37.54 30.75-49.06c27.64-12.21 58.93 1.65 63.38 32.02 2.79 19 9.51 20.87 16.19 18.1 6.68-2.77 37.65-47.21-9.9-71.85C68.74-26.43 10.24-26.03 10.65 30.36c.4 56.38 5.22 38.63 5.22 38.63Z"/></g></g><g><path class="cls-4" d="M128.76 78.98s-5.94 10.39-21.59 9.03C91.53 86.65 82.59 60.49 60.8 58.6c-21.79-1.89-33.02 17.24-26.23 34.46 5.87 14.87 35.11 32.7 62.43 21.32 0 0 23.6-8.58 31.76-35.41Z"/><g class="cls-2"><path class="cls-1" d="M55.65 58.56s-10.06 3.35-11.3 20.77c-.71 10.02 5 16.56 14.8 21.81 25.44 13.62 60.1 2.57 69.61-22.16 7.33-19.04 4.56 20.3.89 27.19-3.67 6.88-55 44.57-76.64 23.61S19.34 89.41 27.15 74.6c7.81-14.81 18.67-20.27 28.5-16.04Z"/></g></g></g></svg>